<svg width="28" height="19" viewBox="0 0 28 19" fill="none" xmlns="http://www.w3.org/2000/svg">
<g clip-path="url(#clip0_1_2610)">
<rect x="0.789551" y="0.79895" width="27" height="18" rx="2" fill="black"/>
<path fill-rule="evenodd" clip-rule="evenodd" d="M27.5296 14.1489V16.1049H25.0456L24.1276 15.0309L23.1736 16.1049H16.1176V10.387H13.7896L16.6996 3.79895H19.5315L20.2155 5.29295V3.79895H23.7316L24.3196 5.36495L24.8955 3.79895H27.5296V4.72894H25.4956L24.5715 7.16496L24.3256 7.82494L23.1436 4.72894H21.1096V9.52893L18.9976 4.72894H17.3596L15.2356 9.52893H16.6276L16.9996 8.60495H19.3276L19.6996 9.52893H21.1096H22.3336V6.40295L22.3276 5.77294L22.5676 6.40295L23.7376 9.52893H24.9016L26.0776 6.40295L26.3056 5.77895V9.52893H27.5296V11.4069L26.1735 12.7689L27.5296 14.1489ZM17.1015 15.1749V10.3929H21.1096V11.431H18.3256V12.2709H21.0556V13.303H18.3256V14.1369H21.1096V15.1749H17.1015ZM27.1576 15.1749H25.5676L24.1156 13.6149L22.6576 15.1749H21.1096L23.3475 12.7929L21.1096 10.3929H22.7056L24.1456 11.9469L25.5916 10.3929H27.1576L24.9135 12.7749L27.1576 15.1749Z" fill="white"/>
<path d="M18.1635 5.75494L17.9236 6.35496L17.4256 7.56693H18.9016L18.4036 6.35496L18.1635 5.75494Z" fill="white"/>
</g>
<rect x="1.28955" y="1.29895" width="26" height="17" rx="1.5" stroke="white" stroke-opacity="0.2"/>
<defs>
<clipPath id="clip0_1_2610">
<rect x="0.789551" y="0.79895" width="27" height="18" rx="2" fill="white"/>
</clipPath>
</defs>
</svg>
