<svg width="28" height="19" viewBox="0 0 28 19" fill="none" xmlns="http://www.w3.org/2000/svg">
<g clip-path="url(#clip0_1_2613)">
<rect x="0.789551" y="0.79895" width="27" height="18" rx="2" fill="black"/>
<path d="M27.7896 12.799C27.7896 12.799 21.7851 16.9414 10.7896 18.799H27.7896V12.799Z" fill="white"/>
<path d="M3.84294 7.74927H2.78955V11.4395H3.84294C4.39982 11.4395 4.80239 11.3053 5.15799 11.0168C5.58069 10.6679 5.82894 10.1445 5.82894 9.60108C5.82223 8.50744 5.01038 7.74927 3.84294 7.74927ZM4.68833 10.527C4.46021 10.7283 4.1717 10.8222 3.70204 10.8222H3.50746V8.37996H3.70204C4.16499 8.37996 4.44679 8.46047 4.68833 8.67517C4.93658 8.89659 5.08419 9.23877 5.08419 9.59437C5.08419 9.94997 4.93658 10.3056 4.68833 10.527Z" fill="white"/>
<path d="M6.87563 7.74927H6.15771V11.4395H6.87563V7.74927Z" fill="white"/>
<path d="M8.63342 9.16505C8.20401 9.00402 8.07653 8.89667 8.07653 8.7021C8.07653 8.46727 8.30465 8.29282 8.61329 8.29282C8.82799 8.29282 9.00915 8.38004 9.1903 8.59475L9.56603 8.10496C9.2574 7.83658 8.88838 7.69568 8.4791 7.69568C7.82828 7.69568 7.32507 8.15192 7.32507 8.75577C7.32507 9.26569 7.5599 9.52736 8.23085 9.7689C8.51265 9.86955 8.65355 9.93664 8.72735 9.9769C8.86825 10.0708 8.94205 10.205 8.94205 10.3593C8.94205 10.6613 8.70722 10.8827 8.38517 10.8827C8.04298 10.8827 7.7679 10.7082 7.60016 10.3929L7.13721 10.8424C7.46597 11.3322 7.86854 11.5469 8.41201 11.5469C9.15676 11.5469 9.6868 11.0504 9.6868 10.3325C9.70022 9.73536 9.45197 9.46698 8.63342 9.16505Z" fill="white"/>
<path d="M9.92175 9.60115C9.92175 10.6881 10.7739 11.5268 11.8675 11.5268C12.1761 11.5268 12.4445 11.4664 12.7666 11.3121V10.4667C12.4781 10.7552 12.2231 10.8692 11.901 10.8692C11.1764 10.8692 10.6598 10.3459 10.6598 9.59444C10.6598 8.88324 11.1898 8.32635 11.8675 8.32635C12.2097 8.32635 12.4713 8.44712 12.7666 8.74234V7.89694C12.4512 7.73592 12.1896 7.66882 11.8809 7.66882C10.8007 7.66882 9.92175 8.52763 9.92175 9.60115Z" fill="white"/>
<path d="M18.483 10.2318L17.4967 7.74927H16.7117L18.275 11.5334H18.6641L20.2543 7.74927H19.476L18.483 10.2318Z" fill="white"/>
<path d="M20.583 11.4395H22.6227V10.8155H21.3009V9.82249H22.5757V9.19851H21.3009V8.37996H22.6227V7.74927H20.583V11.4395Z" fill="white"/>
<path d="M25.4743 8.84292C25.4743 8.15184 24.9979 7.75598 24.1659 7.75598H23.0991V11.4462H23.817V9.9634H23.911L24.904 11.4462H25.7896L24.6289 9.88959C25.1723 9.77553 25.4743 9.40651 25.4743 8.84292ZM24.025 9.45348H23.817V8.333H24.0384C24.488 8.333 24.7295 8.52086 24.7295 8.88317C24.7295 9.25219 24.488 9.45348 24.025 9.45348Z" fill="white"/>
<path d="M14.9738 11.5737C16.0595 11.5737 16.9397 10.6936 16.9397 9.60784C16.9397 8.52212 16.0595 7.64197 14.9738 7.64197C13.8881 7.64197 13.0079 8.52212 13.0079 9.60784C13.0079 10.6936 13.8881 11.5737 14.9738 11.5737Z" fill="white"/>
</g>
<rect x="1.28955" y="1.29895" width="26" height="17" rx="1.5" stroke="white" stroke-opacity="0.2" style="mix-blend-mode:difference"/>
<defs>
<clipPath id="clip0_1_2613">
<rect x="0.789551" y="0.79895" width="27" height="18" rx="2" fill="white"/>
</clipPath>
</defs>
</svg>
