<?xml version="1.0" encoding="UTF-8" standalone="no"?>
<!DOCTYPE svg PUBLIC "-//W3C//DTD SVG 1.1//EN" "http://www.w3.org/Graphics/SVG/1.1/DTD/svg11.dtd">
<svg width="100%" height="100%" viewBox="0 0 115 26" version="1.1" xmlns="http://www.w3.org/2000/svg" xmlns:xlink="http://www.w3.org/1999/xlink" xml:space="preserve" xmlns:serif="http://www.serif.com/" style="fill-rule:evenodd;clip-rule:evenodd;stroke-linejoin:round;stroke-miterlimit:2;">
    <path d="M9.965,21.22C9.965,22.681 9.455,23.854 8.437,24.739C7.53,25.492 6.5,25.868 5.349,25.868C4.796,25.868 4.077,25.735 3.191,25.47C2.328,25.182 1.763,25.038 1.498,25.038C1.232,25.038 1.055,25.259 0.967,25.702L0.535,25.702L0.535,20.19L1.033,20.19C1.365,21.806 1.697,22.858 2.029,23.345C2.649,24.451 3.689,25.005 5.15,25.005C7.253,25.005 8.304,24.097 8.304,22.282C8.304,21.22 7.674,20.246 6.412,19.36L4.519,18.032C2.903,16.925 1.985,16.261 1.763,16.04C0.922,15.199 0.502,14.192 0.502,13.019C0.502,11.868 0.845,10.871 1.531,10.03C2.372,9.056 3.512,8.569 4.951,8.569C5.504,8.569 6.091,8.713 6.711,9.001C7.308,9.267 7.674,9.399 7.806,9.399C8.028,9.399 8.161,9.222 8.205,8.868L8.703,8.868L8.935,13.649L8.371,13.649C8.061,11.856 7.607,10.65 7.01,10.03C6.545,9.521 5.847,9.267 4.918,9.267C4.01,9.267 3.258,9.576 2.66,10.196C2.173,10.727 1.929,11.325 1.929,11.989C1.929,13.052 2.483,13.959 3.59,14.712L7.142,17.136C8.138,17.8 8.814,18.342 9.168,18.763C9.699,19.427 9.965,20.246 9.965,21.22ZM23.213,2.061C23.213,3.102 22.759,3.622 21.851,3.622C21.431,3.622 21.099,3.434 20.855,3.058C20.656,2.748 20.556,2.416 20.556,2.061C20.556,1.752 20.667,1.42 20.888,1.065C21.11,0.733 21.431,0.567 21.851,0.567C22.228,0.567 22.549,0.711 22.814,0.999C23.08,1.309 23.213,1.663 23.213,2.061ZM24.972,25.603L17.07,25.603L17.07,25.038C18.199,24.994 18.963,24.772 19.361,24.374C19.826,23.887 20.058,22.924 20.058,21.485L20.058,13.716C20.058,12.011 19.494,11.159 18.365,11.159C18.099,11.159 17.734,11.214 17.269,11.325L17.269,10.727C18.31,10.395 19.948,9.776 22.183,8.868L22.183,21.485C22.183,22.769 22.372,23.666 22.748,24.175C23.102,24.662 23.844,24.95 24.972,25.038L24.972,25.603ZM47.65,16.77C47.65,18.918 47.086,20.854 45.957,22.581C44.518,24.772 42.481,25.868 39.847,25.868C38.896,25.868 37.933,25.669 36.959,25.27C35.609,24.85 34.933,24.33 34.933,23.71L34.933,4.784C34.933,3.279 34.28,2.526 32.974,2.526C32.775,2.526 32.62,2.537 32.51,2.56L32.51,1.929C33.461,1.685 34.978,1.176 37.058,0.401L37.058,12.554L37.324,12.056C37.678,11.369 38.209,10.716 38.918,10.097C39.958,9.189 40.987,8.735 42.006,8.735C43.865,8.735 45.304,9.599 46.322,11.325C47.207,12.808 47.65,14.623 47.65,16.77ZM45.492,17.966C45.492,13.096 43.931,10.661 40.81,10.661C40.058,10.661 39.272,11.048 38.453,11.823C37.523,12.664 37.058,13.616 37.058,14.679L37.058,22.614C37.058,23.234 37.545,23.787 38.519,24.274C39.338,24.651 40.047,24.839 40.644,24.839C42.393,24.839 43.699,24.009 44.562,22.349C45.182,21.153 45.492,19.692 45.492,17.966ZM62.824,19.56C62.426,20.866 61.795,22.028 60.931,23.046C59.603,24.662 57.999,25.47 56.117,25.47C54.28,25.47 52.808,24.728 51.701,23.245C50.616,21.806 50.074,19.803 50.074,17.235C50.074,14.203 50.849,11.845 52.398,10.163C53.66,8.857 55.077,8.193 56.648,8.171C58.131,8.149 59.36,8.625 60.334,9.599C61.441,10.683 62.082,12.31 62.26,14.479L51.767,14.479C51.789,20.434 53.439,23.411 56.715,23.411C59.15,23.411 61.053,22.072 62.426,19.394L62.824,19.56ZM59.935,13.55C59.603,10.739 58.286,9.322 55.984,9.3C54.014,9.278 52.62,10.694 51.801,13.55L59.935,13.55ZM79.26,10.495C79.26,11.27 78.939,11.657 78.297,11.657C77.898,11.657 77.467,11.524 77.002,11.259C76.537,10.971 76.161,10.838 75.873,10.86C75.452,10.905 74.899,11.425 74.213,12.421C73.526,13.417 73.183,14.225 73.183,14.845L73.183,21.917C73.183,23.157 73.482,24.009 74.08,24.474C74.5,24.806 75.22,24.994 76.238,25.038L76.238,25.603L68.402,25.603L68.402,25.038C69.398,24.861 70.062,24.618 70.394,24.308C70.837,23.887 71.058,23.168 71.058,22.149L71.058,13.649C71.058,11.945 70.516,11.093 69.431,11.093C69.033,11.093 68.712,11.126 68.469,11.192L68.469,10.628C69.443,10.274 71.014,9.643 73.183,8.735L73.183,12.985L73.549,12.421C74.522,11.004 75.253,10.052 75.74,9.565C76.382,8.901 77.024,8.591 77.666,8.636C78.728,8.702 79.26,9.322 79.26,10.495ZM91.213,2.061C91.213,3.102 90.759,3.622 89.851,3.622C89.431,3.622 89.099,3.434 88.855,3.058C88.656,2.748 88.556,2.416 88.556,2.061C88.556,1.752 88.667,1.42 88.888,1.065C89.11,0.733 89.431,0.567 89.851,0.567C90.228,0.567 90.549,0.711 90.814,0.999C91.08,1.309 91.213,1.663 91.213,2.061ZM92.972,25.603L85.07,25.603L85.07,25.038C86.199,24.994 86.963,24.772 87.361,24.374C87.826,23.887 88.058,22.924 88.058,21.485L88.058,13.716C88.058,12.011 87.494,11.159 86.365,11.159C86.099,11.159 85.734,11.214 85.269,11.325L85.269,10.727C86.31,10.395 87.948,9.776 90.183,8.868L90.183,21.485C90.183,22.769 90.372,23.666 90.748,24.175C91.102,24.662 91.844,24.95 92.972,25.038L92.972,25.603ZM114.189,24.108C113.326,25.282 112.407,25.868 111.433,25.868C110.172,25.868 109.474,24.795 109.342,22.647C107.615,24.75 105.833,25.824 103.996,25.868C103.088,25.89 102.347,25.58 101.771,24.938C101.107,24.252 100.775,23.334 100.775,22.183C100.775,20.478 101.528,19.028 103.033,17.833C104.184,16.948 106.276,15.863 109.308,14.579L109.308,12.554C109.308,10.407 108.279,9.333 106.22,9.333C105.579,9.333 104.97,9.51 104.394,9.864C103.752,10.218 103.431,10.65 103.431,11.159C103.431,11.048 103.476,11.48 103.564,12.454C103.608,12.875 103.531,13.24 103.332,13.55C103.133,13.838 102.856,13.981 102.502,13.981C101.749,13.981 101.373,13.483 101.373,12.487C101.373,11.602 101.771,10.783 102.568,10.03C103.564,9.056 104.881,8.569 106.519,8.569C108.6,8.569 110.05,9.255 110.869,10.628C111.245,11.314 111.433,12.565 111.433,14.38L111.433,21.319C111.433,23.068 111.909,23.942 112.861,23.942C113.215,23.942 113.658,23.732 114.189,23.312L114.189,24.108ZM109.308,20.556L109.308,15.575C105.058,17.235 102.933,18.995 102.933,20.854L102.933,20.954C102.933,22.813 103.763,23.832 105.424,24.009C106.132,24.075 106.984,23.765 107.98,23.079C108.866,22.459 109.308,21.618 109.308,20.556Z" style="fill-rule:nonzero;"/>
</svg>
