<svg width="28" height="19" viewBox="0 0 28 19" fill="none" xmlns="http://www.w3.org/2000/svg">
<rect x="0.789551" y="0.79895" width="27" height="18" rx="2" fill="black"/>
<path fill-rule="evenodd" clip-rule="evenodd" d="M14.2896 5.62476C13.0752 6.5865 12.2969 8.0742 12.2969 9.74559C12.2969 11.417 13.0752 12.9047 14.2896 13.8664C15.504 12.9047 16.2823 11.417 16.2823 9.74559C16.2823 8.0742 15.504 6.5865 14.2896 5.62476Z" fill="white"/>
<path d="M13.8694 14.1693C12.6031 13.115 11.7968 11.5251 11.7968 9.74565C11.7968 7.96621 12.6031 6.37631 13.8694 5.32197C13.0551 4.79893 12.0859 4.49243 11.0428 4.49243C8.13891 4.49243 5.78955 6.84179 5.78955 9.74565C5.78955 12.6495 8.13891 14.9989 11.0428 14.9989C12.0859 14.9989 13.0551 14.6924 13.8694 14.1693Z" fill="white"/>
<path d="M17.5363 14.9989C20.4402 14.9989 22.7896 12.6495 22.7896 9.74565C22.7896 6.85638 20.4402 4.49243 17.5363 4.49243C16.4932 4.49243 15.524 4.79893 14.7097 5.32198C15.976 6.37631 16.7822 7.96621 16.7822 9.74565C16.7822 11.5251 15.976 13.115 14.7097 14.1693C15.524 14.6924 16.4932 14.9989 17.5363 14.9989Z" fill="white"/>
<rect x="1.28955" y="1.29895" width="26" height="17" rx="1.5" stroke="white" stroke-opacity="0.2"/>
</svg>
