<svg width="28" height="19" viewBox="0 0 28 19" fill="none" xmlns="http://www.w3.org/2000/svg">
<rect x="0.789551" y="0.79895" width="27" height="18" rx="2" fill="black"/>
<path d="M17.4676 6.28491C15.9765 6.28491 14.644 7.05777 14.644 8.48568C14.644 10.1232 17.0073 10.2363 17.0073 11.059C17.0073 11.4054 16.6103 11.7154 15.9323 11.7154C14.9701 11.7154 14.251 11.2822 14.251 11.2822L13.9433 12.7231C13.9433 12.7231 14.7717 13.0891 15.8716 13.0891C17.5018 13.0891 18.7846 12.2783 18.7846 10.8259C18.7846 9.09558 16.4115 8.98584 16.4115 8.22228C16.4115 7.95093 16.7374 7.65362 17.4135 7.65362C18.1762 7.65362 18.7986 7.96872 18.7986 7.96872L19.0997 6.57703C19.0997 6.57703 18.4226 6.28491 17.4676 6.28491ZM3.82566 6.38995L3.78955 6.60001C3.78955 6.60001 4.41685 6.71482 4.98184 6.94383C5.7093 7.20644 5.76113 7.35932 5.88364 7.83415L7.21871 12.9808H9.00837L11.7655 6.38995H9.97992L8.20831 10.8711L7.48539 7.07266C7.4191 6.63793 7.08327 6.38995 6.67221 6.38995H3.82566ZM12.4835 6.38995L11.0828 12.9808H12.7854L14.1812 6.38995H12.4835ZM21.9799 6.38995C21.5693 6.38995 21.3518 6.60976 21.1922 6.99388L18.6976 12.9808H20.4832L20.8287 11.9829H23.004L23.2141 12.9808H24.7896L23.4151 6.38995H21.9799ZM22.2121 8.17058L22.7414 10.6438H21.3235L22.2121 8.17058Z" fill="white"/>
<rect x="1.28955" y="1.29895" width="26" height="17" rx="1.5" stroke="white" stroke-opacity="0.2"/>
</svg>
